<?xml version="1.0" standalone="no"?>
<!DOCTYPE svg PUBLIC "-//W3C//DTD SVG 20010904//EN"
 "http://www.w3.org/TR/2001/REC-SVG-20010904/DTD/svg10.dtd">
<svg version="1.0" xmlns="http://www.w3.org/2000/svg"
 width="24.000000pt" height="24.000000pt" viewBox="0 0 24.000000 24.000000"
 preserveAspectRatio="xMidYMid meet">

<g transform="translate(0.000000,24.000000) scale(0.100000,-0.100000)"
fill="#ffffff" stroke="none">
<path d="M42 214 c-19 -13 -22 -24 -22 -93 0 -46 5 -82 12 -89 7 -7 44 -12 95
-12 98 0 103 5 103 104 0 89 -16 106 -103 106 -40 0 -70 -5 -85 -16z m156 -16
c16 -16 16 -140 0 -156 -7 -7 -40 -12 -80 -12 -79 0 -88 9 -88 90 0 81 9 90
88 90 40 0 73 -5 80 -12z"/>
<path d="M167 184 c-8 -8 1 -24 14 -24 5 0 9 7 9 15 0 15 -12 20 -23 9z"/>
<path d="M82 158 c-16 -16 -15 -63 2 -77 21 -18 66 -9 82 14 11 16 11 25 1 45
-14 28 -64 39 -85 18z m72 -20 c14 -23 -3 -52 -32 -56 -29 -4 -51 40 -32 63
16 20 49 16 64 -7z"/>
</g>
</svg>
